HIERARCHY
ROOT Hips
{
  OFFSET 5.84602e-005 68.8428 3.50346
  CHANNELS 6 Xposition Yposition Zposition Zrotation Xrotation Yrotation
  JOINT Spine
  {
    OFFSET 0 8.597 -4.6522
    CHANNELS 3 Zrotation Xrotation Yrotation
    JOINT Spine1
    {
      OFFSET 0 7.8454 0.4098
      CHANNELS 3 Zrotation Xrotation Yrotation
      JOINT Spine2
      {
        OFFSET 0 9.7078 -2.1609
        CHANNELS 3 Zrotation Xrotation Yrotation
        JOINT Neck
        {
          OFFSET 0 21.8761 -0.4549
          CHANNELS 3 Zrotation Xrotation Yrotation
          JOINT Head
          {
            OFFSET 0 12.3537 3.3602
            CHANNELS 3 Zrotation Xrotation Yrotation
            End Site
            {
              OFFSET 0.0001 18.9506 0.5657
            }
          }
        }
        JOINT LeftShoulder
        {
          OFFSET 2.2086 21.1115 7.2329
          CHANNELS 3 Zrotation Xrotation Yrotation
          JOINT LeftArm
          {
            OFFSET 13.1193 3.0282 -4.8998
            CHANNELS 3 Zrotation Xrotation Yrotation
            JOINT LeftForeArm
            {
              OFFSET 27.4081 -0.0973053 -0.2375
              CHANNELS 3 Zrotation Xrotation Yrotation
              JOINT LeftHand
              {
                OFFSET 22.8641 0.0662994 -0.1369
                CHANNELS 3 Zrotation Xrotation Yrotation
                JOINT LeftHandIndex1
                {
                  OFFSET 8.8614 0.775009 2.4612
                  CHANNELS 3 Zrotation Xrotation Yrotation
                  JOINT LeftHandIndex2
                  {
                    OFFSET 3.3146 -0.808304 0.5841
                    CHANNELS 3 Zrotation Xrotation Yrotation
                    JOINT LeftHandIndex3
                    {
                      OFFSET 2.2628 -0.552002 0.3989
                      CHANNELS 3 Zrotation Xrotation Yrotation
                      End Site
                      {
                        OFFSET 1.6102 -0.4807 0.2612
                      }
                    }
                  }
                }
                JOINT LeftHandMiddle1
                {
                  OFFSET 8.9937 0.895004 0.2143
                  CHANNELS 3 Zrotation Xrotation Yrotation
                  JOINT LeftHandMiddle2
                  {
                    OFFSET 4.0984 0.0113983 -0.0242
                    CHANNELS 3 Zrotation Xrotation Yrotation
                    JOINT LeftHandMiddle3
                    {
                      OFFSET 2.2716 0.00689697 -0.0138001
                      CHANNELS 3 Zrotation Xrotation Yrotation
                      End Site
                      {
                        OFFSET 2.0404 -0.1441 0.0027
                      }
                    }
                  }
                }
                JOINT LeftHandRing1
                {
                  OFFSET 8.5234 0.597198 -2.0164
                  CHANNELS 3 Zrotation Xrotation Yrotation
                  JOINT LeftHandRing2
                  {
                    OFFSET 3.7188 -0.188293 -0.2328
                    CHANNELS 3 Zrotation Xrotation Yrotation
                    JOINT LeftHandRing3
                    {
                      OFFSET 2.1191 -0.106598 -0.1332
                      CHANNELS 3 Zrotation Xrotation Yrotation
                      End Site
                      {
                        OFFSET 1.8737 -0.2304 -0.0886
                      }
                    }
                  }
                }
                JOINT LeftHandPinky1
                {
                  OFFSET 7.9094 -0.601089 -3.4825
                  CHANNELS 3 Zrotation Xrotation Yrotation
                  JOINT LeftHandPinky2
                  {
                    OFFSET 2.2874 -0.477005 -0.6314
                    CHANNELS 3 Zrotation Xrotation Yrotation
                    JOINT LeftHandPinky3
                    {
                      OFFSET 1.6774 -0.349396 -0.4633
                      CHANNELS 3 Zrotation Xrotation Yrotation
                      End Site
                      {
                        OFFSET 1.4888 -0.4091 -0.3416
                      }
                    }
                  }
                }
                JOINT LeftHandThumb1
                {
                  OFFSET 1.833 -1.3875 1.3896
                  CHANNELS 3 Zrotation Xrotation Yrotation
                  JOINT LeftHandThumb2
                  {
                    OFFSET 3.4129 -1.121 2.5732
                    CHANNELS 3 Zrotation Xrotation Yrotation
                    JOINT LeftHandThumb3
                    {
                      OFFSET 2.2474 -0.804199 1.6192
                      CHANNELS 3 Zrotation Xrotation Yrotation
                      End Site
                      {
                        OFFSET 1.6527 -0.5689 1.1317
                      }
                    }
                  }
                }
              }
            }
          }
        }
        JOINT RightShoulder
        {
          OFFSET -2.2086 21.1115 7.2329
          CHANNELS 3 Zrotation Xrotation Yrotation
          JOINT RightArm
          {
            OFFSET -13.1216 3.0287 -4.9007
            CHANNELS 3 Zrotation Xrotation Yrotation
            JOINT RightForeArm
            {
              OFFSET -27.4081 -0.0973053 -0.2375
              CHANNELS 3 Zrotation Xrotation Yrotation
              JOINT RightHand
              {
                OFFSET -22.8641 0.0664063 -0.1369
                CHANNELS 3 Zrotation Xrotation Yrotation
                JOINT RightHandIndex1
                {
                  OFFSET -8.8614 0.774994 2.4612
                  CHANNELS 3 Zrotation Xrotation Yrotation
                  JOINT RightHandIndex2
                  {
                    OFFSET -3.3146 -0.808304 0.5841
                    CHANNELS 3 Zrotation Xrotation Yrotation
                    JOINT RightHandIndex3
                    {
                      OFFSET -2.2628 -0.552002 0.3989
                      CHANNELS 3 Zrotation Xrotation Yrotation
                      End Site
                      {
                        OFFSET -1.6102 -0.4807 0.2612
                      }
                    }
                  }
                }
                JOINT RightHandMiddle1
                {
                  OFFSET -8.9937 0.894989 0.2143
                  CHANNELS 3 Zrotation Xrotation Yrotation
                  JOINT RightHandMiddle2
                  {
                    OFFSET -4.0984 0.0113983 -0.0242
                    CHANNELS 3 Zrotation Xrotation Yrotation
                    JOINT RightHandMiddle3
                    {
                      OFFSET -2.2716 0.00691223 -0.0138001
                      CHANNELS 3 Zrotation Xrotation Yrotation
                      End Site
                      {
                        OFFSET -2.0404 -0.1441 0.0027
                      }
                    }
                  }
                }
                JOINT RightHandRing1
                {
                  OFFSET -8.5234 0.597198 -2.0164
                  CHANNELS 3 Zrotation Xrotation Yrotation
                  JOINT RightHandRing2
                  {
                    OFFSET -3.7188 -0.188309 -0.2328
                    CHANNELS 3 Zrotation Xrotation Yrotation
                    JOINT RightHandRing3
                    {
                      OFFSET -2.1191 -0.106598 -0.1332
                      CHANNELS 3 Zrotation Xrotation Yrotation
                      End Site
                      {
                        OFFSET -1.8737 -0.2304 -0.0886
                      }
                    }
                  }
                }
                JOINT RightHandPinky1
                {
                  OFFSET -7.9094 -0.601105 -3.4825
                  CHANNELS 3 Zrotation Xrotation Yrotation
                  JOINT RightHandPinky2
                  {
                    OFFSET -2.2874 -0.477005 -0.6314
                    CHANNELS 3 Zrotation Xrotation Yrotation
                    JOINT RightHandPinky3
                    {
                      OFFSET -1.6774 -0.349396 -0.4633
                      CHANNELS 3 Zrotation Xrotation Yrotation
                      End Site
                      {
                        OFFSET -1.4888 -0.4091 -0.3416
                      }
                    }
                  }
                }
                JOINT RightHandThumb1
                {
                  OFFSET -1.833 -1.38751 1.3896
                  CHANNELS 3 Zrotation Xrotation Yrotation
                  JOINT RightHandThumb2
                  {
                    OFFSET -3.41299 -1.12099 2.5732
                    CHANNELS 3 Zrotation Xrotation Yrotation
                    JOINT RightHandThumb3
                    {
                      OFFSET -2.24741 -0.804108 1.6192
                      CHANNELS 3 Zrotation Xrotation Yrotation
                      End Site
                      {
                        OFFSET -1.6527 -0.5689 1.1317
                      }
                    }
                  }
                }
              }
            }
          }
        }
      }
    }
  }
  JOINT RightUpLeg
  {
    OFFSET -9.1966 3.8861 -0.7581
    CHANNELS 3 Zrotation Xrotation Yrotation
    JOINT RightLeg
    {
      OFFSET -0.7359 -41.0265 0
      CHANNELS 3 Zrotation Xrotation Yrotation
      JOINT RightFoot
      {
        OFFSET 0 -40.2855 0
        CHANNELS 3 Zrotation Xrotation Yrotation
        JOINT RightToeBase
        {
          OFFSET 0 -5.6122 11.7359
          CHANNELS 3 Zrotation Xrotation Yrotation
          End Site
          {
            OFFSET 0 0 7.8731
          }
        }
      }
    }
  }
  JOINT LeftUpLeg
  {
    OFFSET 9.1965 3.8864 -0.7581
    CHANNELS 3 Zrotation Xrotation Yrotation
    JOINT LeftLeg
    {
      OFFSET 0.7359 -41.0268 0
      CHANNELS 3 Zrotation Xrotation Yrotation
      JOINT LeftFoot
      {
        OFFSET 0 -40.2855 0
        CHANNELS 3 Zrotation Xrotation Yrotation
        JOINT LeftToeBase
        {
          OFFSET 0 -5.6122 11.7359
          CHANNELS 3 Zrotation Xrotation Yrotation
          End Site
          {
            OFFSET 0 0 7.8731
          }
        }
      }
    }
  }
}
MOTION
Frames:	4
Frame Time:	0.0333333
5.84602e-005 68.8428 3.50346 0 0 -0 0 0 -0 0 0 -0 0 0 -0 0 0 -0 0 0 -0 0 0 -0 0 0 -0 0 0 -0 0 0 -0 0 0 -0 0 0 -0 0 0 -0 0 0 -0 -0.0146107 -8.87603e-005 -2.63497e-007 2.99804e-018 -2.42657e-020 -1.42182e-022 0 0 -0 -0.0187562 -0.001176 5.858e-005 5.06224e-018 3.88251e-019 1.21329e-020 0 0 -0 -0.012269 -0.00324817 0.000675346 -1.74678e-018 3.88251e-019 -0 0 0 -0 0 0 -0 0 0 -0 0 0 -0 0 0 -0 0 0 -0 0 0 -0 0 0 -0 0 0 -0 0 0 -0 0 0 -0 0.0149955 -9.10982e-005 2.64101e-007 -9.69331e-018 1.21329e-020 -4.7394e-023 0 0 -0 0.0189956 -0.00119102 -5.96516e-005 -5.41541e-019 0 2.42657e-020 0 0 -0 0.0122698 -0.00324857 -0.000673756 -2.00796e-019 0 -1.94126e-019 0 0 -0 0 0 -0 0 0 -0 3.39842 1.33031 -0.0637918 -5.65207e-008 0.834868 -0.000436188 -3.39935 -2.16518 -0.0642563 -8.89002e-024 -1.18485e-023 -1.48106e-024 -3.39844 1.35642 0.0640283 -3.18788e-007 0.782166 -0.000588827 3.39931 -2.13858 0.0634662 1.1399e-023 0 -0 
0.863901 66.7693 20.8229 0 39.9976 -0 0.414273 -5.07865 -0.378361 0.799456 -10.1598 -0.723974 0.799456 -10.1598 -0.723973 0.263787 0.170022 0.158726 -1.09778e-007 0.316488 -3.65327e-007 -23.2589 37.6464 -6.59669 -81.2437 -49.2563 -50.2364 -108.098 2.60485 -11.3902 137.834 46.5172 -96.5818 -5.48403e-006 -2.81297e-006 1.90237e-006 -2.24978e-006 -1.96893e-006 5.63294e-007 -1.6957e-006 -1.1018e-008 1.54998e-006 -5.48403e-006 -2.81297e-006 1.90237e-006 -0.0145843 -8.6812e-005 -1.60019e-006 -3.23408e-006 -8.4421e-007 1.33897e-006 -5.48403e-006 -2.81297e-006 1.90237e-006 -0.0188358 -0.00118622 5.82119e-005 -3.23402e-006 -8.44245e-007 1.33897e-006 -5.48403e-006 -2.81297e-006 1.90237e-006 -0.0123315 -0.00326465 0.000684302 -3.23408e-006 -8.44129e-007 1.33907e-006 -5.48403e-006 -2.81297e-006 1.90237e-006 -2.24978e-006 -1.96893e-006 5.63294e-007 -1.6957e-006 -1.1018e-008 1.54998e-006 22.3426 37.3817 3.20602 80.7158 -50.1216 49.7936 106.451 2.22138 11.7136 -139.538 51.8819 104.914 -3.18055e-015 -1.59028e-015 -0 0 7.95139e-016 -0 3.18055e-015 9.54166e-015 -3.18055e-015 -3.18055e-015 -1.59028e-015 -0 0.014988 -9.21794e-005 -1.37076e-006 6.36111e-015 -5.56597e-015 -0 -3.18055e-015 -1.59028e-015 -0 0.0189817 -0.00118582 -5.93537e-005 -1.76556e-031 1.59028e-015 6.36111e-015 -3.18055e-015 -1.59028e-015 -0 0.0122161 -0.00323575 -0.000678471 6.36111e-015 -7.95139e-016 -0 -3.18055e-015 -1.59028e-015 -0 0 7.95139e-016 -0 3.18055e-015 9.54166e-015 -3.18055e-015 -35.151 -61.7021 -38.9484 5.35481 31.2643 -5.68119 -5.53345 9.70634 -12.0144 -3.48106e-006 -5.29435e-008 -2.9089e-007 34.5942 -62.2687 40.9362 -5.43877 32.7128 5.99827 7.63153 7.78109 10.0414 -3.53113e-031 3.18055e-015 6.36111e-015 
0.864004 66.7257 21.3737 0 38.618 -0 0.410375 -4.68135 -0.385658 0.792995 -9.36526 -0.741267 0.792994 -9.36525 -0.741268 0.544333 0.300434 0.274744 4.25923e-009 0.433188 -2.45402e-008 -23.2339 37.3645 -6.83765 -81.2437 -49.2563 -50.2363 -107.69 2.51285 -11.4611 137.503 46.3619 -96.9048 6.36111e-015 -2.38542e-015 -6.36111e-015 -3.23214e-006 -8.45759e-007 1.34175e-006 3.18055e-015 5.56597e-015 6.36111e-015 6.36111e-015 -2.38542e-015 -6.36111e-015 -0.01458 -8.77791e-005 -2.85828e-006 -1.27222e-014 -1.11319e-014 6.36111e-015 6.36111e-015 -2.38542e-015 -6.36111e-015 -0.0187496 -0.00117654 6.11009e-005 -6.17947e-031 1.11319e-014 3.18055e-015 6.36111e-015 -2.38542e-015 -6.36111e-015 -0.0122508 -0.0032395 0.000676391 0 5.56597e-015 -0 6.36111e-015 -2.38542e-015 -6.36111e-015 -3.23214e-006 -8.45759e-007 1.34175e-006 3.18055e-015 5.56597e-015 6.36111e-015 22.3153 37.1065 3.46236 80.7157 -50.1216 49.7936 106.45 2.2214 11.7136 -139.538 51.8819 104.914 4.49743e-006 -3.93122e-006 -1.11815e-006 -9.54166e-015 -1.27222e-014 -0 5.48024e-006 -2.80687e-006 -1.89757e-006 4.49743e-006 -3.93122e-006 -1.11815e-006 0.0150124 -8.89998e-005 -1.27205e-006 5.47986e-006 -2.80711e-006 -1.8972e-006 4.49743e-006 -3.93122e-006 -1.11815e-006 0.018999 -0.00119297 -6.60009e-005 5.47975e-006 -2.80715e-006 -1.89716e-006 4.49743e-006 -3.93122e-006 -1.11815e-006 0.01222 -0.0032344 -0.000669088 5.4799e-006 -2.80696e-006 -1.89741e-006 4.49743e-006 -3.93122e-006 -1.11815e-006 -9.54166e-015 -1.27222e-014 -0 5.48024e-006 -2.80687e-006 -1.89757e-006 -33.9676 -60.1979 -37.9273 5.34989 31.2439 -5.66695 -5.6199 9.26414 -11.5636 -1.15065e-006 -1.526e-007 1.08694e-007 33.3549 -60.7567 39.8232 -5.43457 32.6951 5.98349 7.67554 7.34204 9.65505 2.32746e-006 3.38213e-008 3.76598e-007 
0.864099 66.6865 21.9261 0 37.2351 -0 0.406462 -4.28313 -0.392872 0.786681 -8.56885 -0.758359 0.786681 -8.56885 -0.75836 0.82483 0.432108 0.390221 5.45624e-007 0.549919 -6.15936e-007 -23.2105 37.0824 -7.07757 -81.2437 -49.2563 -50.2364 -107.282 2.4203 -11.5314 137.172 46.2078 -97.2284 -2.75079e-007 -4.21501e-006 -9.89513e-007 2.75079e-007 4.21501e-006 9.89513e-007 -2.75079e-007 -4.21501e-006 -9.89513e-007 -2.75079e-007 -4.21501e-006 -9.89513e-007 -0.014619 -8.25033e-005 3.88617e-006 -2.7481e-007 -4.21488e-006 -9.9005e-007 -2.75079e-007 -4.21501e-006 -9.89513e-007 -0.0187211 -0.00116978 6.02378e-005 -2.74745e-007 -4.21483e-006 -9.902e-007 -2.75079e-007 -4.21501e-006 -9.89513e-007 -0.012383 -0.00327834 0.000689997 -2.74904e-007 -4.21484e-006 -9.89973e-007 -2.75079e-007 -4.21501e-006 -9.89513e-007 2.75079e-007 4.21501e-006 9.89513e-007 -2.75079e-007 -4.21501e-006 -9.89513e-007 22.2896 36.8312 3.71765 80.7157 -50.1216 49.7936 106.45 2.22139 11.7136 -139.538 51.8819 104.914 -3.18055e-015 -3.97569e-015 -9.54166e-015 3.22839e-006 -8.38368e-007 -1.33894e-006 6.36111e-015 3.18055e-015 -0 -3.18055e-015 -3.97569e-015 -9.54166e-015 0.0150582 -9.33572e-005 5.82431e-006 -3.18055e-015 -3.97569e-015 -6.36111e-015 -3.18055e-015 -3.97569e-015 -9.54166e-015 0.0189614 -0.00118784 -6.40682e-005 3.18055e-015 -6.36111e-015 -6.36111e-015 -3.18055e-015 -3.97569e-015 -9.54166e-015 0.0123107 -0.00325064 -0.000665414 -2.64834e-031 -4.77083e-015 -3.18055e-015 -3.18055e-015 -3.97569e-015 -9.54166e-015 3.22839e-006 -8.38368e-007 -1.33894e-006 6.36111e-015 3.18055e-015 -0 -32.8848 -58.6795 -37.0085 5.34507 31.2239 -5.65263 -5.70268 8.82093 -11.1138 1.05934e-030 -9.54166e-015 6.36111e-015 32.2259 -59.2294 38.8219 -5.43055 32.6782 5.96868 7.71649 6.90219 9.26936 2.19681e-006 3.63837e-008 -3.17964e-006 
